<svg xmlns="http://www.w3.org/2000/svg" version="1.1" xmlns:xlink="http://www.w3.org/1999/xlink" xmlns:svgjs="http://svgjs.com/svgjs" width="1440" height="560" preserveAspectRatio="none" viewBox="0 0 1440 560">
    <g mask="url(&quot;#SvgjsMask1125&quot;)" fill="none">
        <rect width="1440" height="560" x="0" y="0" fill="url(#SvgjsRadialGradient1126)"></rect>
        <path d="M1488 560L0 560 L0 293.42Q60.62 234.05, 120 294.67Q219.47 274.14, 240 373.61Q242.7 304.31, 312 307.02Q360.4 235.42, 432 283.82Q536.68 268.5, 552 373.19Q602.58 303.77, 672 354.36Q720.38 282.74, 792 331.12Q834.05 253.17, 912 295.22Q1011.23 274.45, 1032 373.67Q1039.23 308.9, 1104 316.13Q1122.01 262.13, 1176 280.14Q1244.17 228.31, 1296 296.48Q1364.92 293.4, 1368 362.32Q1402.46 276.78, 1488 311.24z" fill="#182f5d"></path>
        <path d="M1560 560L0 560 L0 434.79Q31.22 394.01, 72 425.23Q120.77 354, 192 402.78Q208.49 347.26, 264 363.75Q310.53 338.28, 336 384.82Q355.84 332.66, 408 352.5Q492 316.5, 528 400.51Q581.34 381.85, 600 435.18Q625.82 341, 720 366.82Q767.8 342.62, 792 390.42Q835.84 362.26, 864 406.1Q912.55 382.65, 936 431.2Q944 367.2, 1008 375.2Q1078.95 326.15, 1128 397.1Q1172.01 321.11, 1248 365.11Q1289.66 334.77, 1320 376.44Q1400.58 337.01, 1440 417.59Q1510.72 368.31, 1560 439.04z" fill="#25467d"></path>
        <path d="M1464 560L0 560 L0 437.78Q60.45 426.23, 72 486.68Q99.07 393.75, 192 420.82Q272.27 381.09, 312 461.36Q375.17 452.53, 384 515.7Q385.12 444.82, 456 445.94Q508.12 378.06, 576 430.18Q631.98 414.16, 648 470.14Q727.04 429.18, 768 508.22Q779.71 447.94, 840 459.65Q893.79 393.44, 960 447.23Q1021.98 437.21, 1032 499.19Q1097.79 444.98, 1152 510.77Q1182.44 421.21, 1272 451.65Q1318.86 426.51, 1344 473.37Q1419.68 429.06, 1464 504.74z" fill="#356cb1"></path>
        <path d="M1488 560L0 560 L0 552.45Q36.33 468.78, 120 505.1Q166.52 479.63, 192 526.15Q264.87 479.02, 312 551.89Q361.83 529.72, 384 579.56Q398.19 521.75, 456 535.94Q469.86 477.8, 528 491.66Q599.31 442.98, 648 514.29Q740.23 486.51, 768 578.74Q816.12 506.86, 888 554.97Q928.17 475.14, 1008 515.31Q1034.47 469.78, 1080 496.25Q1137.52 481.77, 1152 539.3Q1196.04 511.34, 1224 555.38Q1237.55 496.93, 1296 510.49Q1372.29 466.78, 1416 543.07Q1427.12 482.19, 1488 493.31z" fill="white"></path>
    </g>
    <defs>
        <mask id="SvgjsMask1125">
            <rect width="1440" height="560" fill="#ffffff"></rect>
        </mask>
        <radialGradient cx="50%" cy="0%" r="912.14" gradientUnits="userSpaceOnUse" id="SvgjsRadialGradient1126">
            <stop stop-color="#0e2a47" offset="0"></stop>
            <stop stop-color="rgba(0, 111, 255, 1)" offset="1"></stop>
            <stop stop-color="rgba(0, 111, 255, 1)" offset="1"></stop>
        </radialGradient>
    </defs>
</svg>